<?xml version="1.0" standalone="no"?>
<!DOCTYPE svg PUBLIC "-//W3C//DTD SVG 20010904//EN"
 "http://www.w3.org/TR/2001/REC-SVG-20010904/DTD/svg10.dtd">
<svg version="1.0" xmlns="http://www.w3.org/2000/svg"
 width="2000.000000pt" height="413.000000pt" viewBox="0 0 2000.000000 413.000000"
 preserveAspectRatio="xMidYMid meet">

<g transform="translate(0.000000,413.000000) scale(0.100000,-0.100000)"
fill="#297490" stroke="none">
<path d="M530 3363 c0 -5 182 -564 404 -1243 l404 -1235 42 0 42 0 301 854
c166 469 303 847 306 840 2 -8 127 -392 276 -854 l272 -840 43 0 42 0 439
1235 c241 679 439 1238 439 1243 0 4 -20 7 -44 7 l-44 0 -35 -110 c-75 -238
-792 -2239 -798 -2227 -10 17 -714 2170 -734 2242 -9 33 -18 68 -21 78 -4 13
-16 17 -51 17 -37 0 -44 -3 -39 -15 3 -9 51 -156 107 -326 l101 -311 -298
-849 c-164 -467 -301 -843 -305 -836 -9 17 -725 2210 -745 2280 l-15 57 -45 0
c-24 0 -44 -3 -44 -7z"/>
<path d="M9955 3363 c-227 -18 -391 -85 -532 -216 -239 -224 -358 -623 -339
-1137 12 -335 72 -583 190 -785 57 -98 201 -239 291 -287 203 -107 473 -127
703 -52 98 32 220 94 301 153 36 25 68 48 72 51 5 3 11 24 15 46 10 64 -13 64
-95 1 -127 -99 -296 -173 -445 -197 -92 -15 -269 -8 -351 14 -247 67 -429 260
-524 558 -116 366 -104 903 29 1247 47 121 98 199 195 297 132 132 248 188
450 215 213 28 448 -35 620 -165 73 -56 90 -57 105 -11 15 45 11 49 -91 115
-84 54 -188 100 -285 125 -56 15 -222 36 -254 33 -8 -1 -33 -3 -55 -5z"/>
<path d="M11723 3353 l-163 -3 0 -1245 0 -1245 40 0 40 0 0 510 0 510 236 -2
236 -3 90 -155 c171 -297 523 -847 563 -880 20 -17 65 5 65 32 0 10 -78 136
-174 280 -160 242 -329 515 -420 679 l-36 67 92 45 c191 94 310 227 372 416
40 120 49 199 44 360 -5 130 -9 156 -37 239 -38 112 -80 181 -152 247 -69 63
-133 97 -229 125 -82 24 -247 30 -567 23z m485 -99 c198 -41 322 -149 389
-341 25 -72 27 -90 28 -238 0 -185 -11 -242 -75 -372 -70 -141 -191 -251 -343
-308 -66 -24 -74 -25 -317 -25 l-250 0 0 650 0 650 245 0 c185 0 265 -4 323
-16z"/>
<path d="M5630 2105 l0 -1245 504 0 503 0 6 37 c4 20 4 40 1 45 -3 4 -214 8
-470 8 l-464 0 0 1200 0 1200 -40 0 -40 0 0 -1245z"/>
<path d="M7510 2105 l0 -1245 500 0 499 0 7 34 c3 19 3 39 -1 45 -4 8 -151 11
-466 11 l-459 0 0 1200 0 1200 -40 0 -40 0 0 -1245z"/>
<path d="M14091 2153 c-239 -659 -442 -1219 -452 -1245 l-19 -48 49 0 49 0 36
113 c19 61 85 247 145 412 l109 300 531 3 c292 1 531 1 531 -1 0 -1 45 -135
101 -297 55 -162 116 -347 134 -410 l33 -115 47 -3 c36 -2 46 0 43 10 -3 7
-189 568 -414 1246 l-408 1232 -41 0 -41 0 -433 -1197z m711 340 c131 -388
236 -708 235 -710 -2 -2 -226 -2 -498 -1 l-495 3 256 707 c140 390 257 708
260 708 3 0 112 -318 242 -707z"/>
<path d="M16330 2105 l0 -1245 40 0 40 0 0 605 0 605 399 0 399 0 6 23 c16 61
46 57 -399 57 l-405 0 0 555 0 555 489 0 488 0 6 37 c4 20 4 40 1 45 -3 4
-243 8 -535 8 l-529 0 0 -1245z"/>
<path d="M18126 3315 c-4 -20 -4 -40 -1 -45 4 -6 137 -10 356 -10 l349 0 0
-1200 0 -1200 40 0 40 0 0 1200 0 1200 344 0 c378 0 356 -4 356 61 l0 29 -739
0 -739 0 -6 -35z"/>
<path d="M4137 3333 c-4 -3 -7 -502 -7 -1109 l0 -1102 98 -89 c165 -151 168
-153 212 -153 42 0 86 33 247 183 l63 59 -2 1107 -3 1106 -301 3 c-165 1 -303
-1 -307 -5z m507 -73 c26 -9 26 -10 26 -134 0 -120 -1 -124 -22 -130 -13 -3
-116 -3 -230 1 l-208 6 0 116 c0 118 4 134 30 144 26 10 377 7 404 -3z m26
-1213 l0 -872 -87 -87 c-88 -86 -118 -108 -147 -108 -9 0 -63 43 -121 96
l-105 97 0 873 0 874 230 0 230 0 0 -873z"/>
</g>
</svg>
