<svg xmlns="http://www.w3.org/2000/svg" width="96" height="66" viewBox="0 0 96 66" xmlns:xlink="http://www.w3.org/1999/xlink"><defs><polygon id="a" points="0 65.4964024 95.7994286 65.4964024 95.7994286 0.0920337378 0 0.0920337378"></polygon></defs><g fill="none" fill-rule="evenodd"><polygon fill="#E1001A" points="42.1171714 0.282453235 21.3491714 46.9760242 31.9588857 46.9760242 47.0394571 12.0901559 59.9437429 39.7347194 41.8026 46.9760242 73.5437429 46.9760242 51.7677429 0.282453235"></polygon><g transform="translate(0 .19)"><path fill="#1A171B" d="M5.899 59.449c-.565-.717-1.52-.978-2.27-.978C1.531 58.47 0 59.836 0 61.968 0 64.1 1.532 65.46 3.628 65.46c.926 0 1.877-.37 2.436-1.156l-1.234-.912c-.306.45-.79.713-1.393.713-1.073 0-1.9-.904-1.9-2.138 0-1.237.827-2.14 1.953-2.14.55 0 .977.196 1.273.541l1.136-.92z"></path><polygon fill="#1A171B" points="7.03654286 65.3704065 8.40968571 65.3704065 8.40968571 62.8710976 11.0716857 62.8710976 11.0716857 65.3704065 12.4428286 65.3704065 12.4428286 59.5892197 11.0716857 59.5892197 11.0716857 61.7432609 8.40968571 61.7432609 8.40968571 59.5892197 7.03654286 59.5892197"></polygon><path fill="#1A171B" d="M16.824 63.044h-1.41l.702-1.773.708 1.773zm-3.696 2.27h1.407l.478-1.208h2.244l.497 1.208h1.435l-2.514-5.701h-1.053l-2.494 5.701z"></path><polygon fill="#1A171B" points="33.3263143 65.3615983 37.7897429 65.3615983 37.7897429 64.1826631 34.5111714 64.1826631 34.5111714 63.0099387 37.4663143 63.0099387 37.4663143 61.8335443 34.5111714 61.8335443 34.5111714 60.7556768 37.6291714 60.7556768 37.6291714 59.5784354 33.3263143 59.5784354"></polygon><polygon fill="#1A171B" points="39.2088571 65.3499953 43.6282857 65.3499953 43.6282857 64.1614615 40.4431429 64.1614615 40.4431429 59.5676793 39.2088571 59.5676793"></polygon><polygon fill="#1A171B" points="61.9548 65.3499953 63.0605143 65.3499953 64.3379429 61.3696773 64.3530857 61.3696773 65.6382286 65.3499953 66.7799429 65.3499953 68.4785143 59.6007098 67.1822286 59.6007098 66.2025143 63.3856679 66.1862286 63.3856679 64.9805143 59.6007098 63.7876571 59.6007098 62.5708 63.2857294 62.5556571 63.2857294 61.6250857 59.6007098 60.2279429 59.6007098"></polygon><mask id="b" fill="#fff"><use xlink:href="#a"></use></mask><polygon fill="#1A171B" points="87.6637143 65.4532086 88.8134286 65.4532086 88.8134286 59.64859 87.6637143 59.64859" mask="url(#b)"></polygon><path fill="#1A171B" d="M68.855 63.455c-.018 1.414 1.188 2.041 2.474 2.041 1.579 0 2.417-.79 2.417-1.841 0-1.302-1.305-1.566-1.724-1.671-1.46-.374-1.737-.427-1.737-.87 0-.482.474-.653.88-.653.61 0 1.102.18 1.148.871h1.237c0-1.326-1.117-1.85-2.328-1.85-1.049 0-2.173.564-2.173 1.739 0 1.08.868 1.408 1.733 1.628.854.225 1.723.33 1.723.951 0 .588-.682.72-1.13.72-.681 0-1.283-.298-1.283-1.065h-1.237z" mask="url(#b)"></path><polygon fill="#1A171B" points="19.9807429 65.3499953 21.1796 65.3499953 21.1796 61.2649395 21.1953143 61.2649395 23.9210286 65.3499953 25.1267429 65.3499953 25.1267429 59.6179309 23.9318857 59.6179309 23.9318857 63.2408418 23.9210286 63.6027659 21.1621714 59.6179309 19.9807429 59.6179309" mask="url(#b)"></polygon><polygon fill="#1A171B" points="26.6615429 65.3499953 27.8575429 65.3499953 27.8575429 61.2649395 27.8729714 61.2649395 30.6012571 65.3499953 31.8046857 65.3499953 31.8046857 59.6179309 30.6146857 59.6179309 30.6146857 63.2408418 30.5969714 63.6027659 27.8424 59.6179309 26.6615429 59.6179309" mask="url(#b)"></polygon><polygon fill="#1A171B" points="47.2219714 65.3499953 48.6302571 65.3499953 48.6302571 60.5402444 48.6479714 60.5402444 51.8602571 65.3499953 53.2836857 65.3499953 53.2836857 58.5959611 51.8745429 58.5959611 51.8745429 62.8636728 51.8579714 63.2922226 48.6122571 58.5959611 47.2219714 58.5959611" mask="url(#b)"></polygon><polygon fill="#1A171B" points="54.7590571 65.3615983 59.2242 65.3615983 59.2242 64.1826631 55.9436286 64.1826631 55.9436286 63.0099387 58.8996286 63.0099387 58.8996286 61.8335443 55.9436286 61.8335443 55.9436286 60.7556768 59.0639143 60.7556768 59.0639143 59.5784354 54.7590571 59.5784354" mask="url(#b)"></polygon><path fill="#1A171B" d="M81.676 63.455c-.018 1.414 1.186 2.041 2.473 2.041 1.578 0 2.415-.79 2.415-1.841 0-1.302-1.302-1.566-1.724-1.671-1.456-.374-1.732-.427-1.732-.87 0-.482.473-.653.878-.653.61 0 1.107.18 1.145.871h1.242c0-1.326-1.116-1.85-2.337-1.85-1.045 0-2.164.564-2.164 1.739 0 1.08.87 1.408 1.728 1.628.857.225 1.73.33 1.73.951 0 .588-.686.72-1.136.72-.682 0-1.282-.298-1.282-1.065h-1.236z" mask="url(#b)"></path><path fill="#1A171B" d="M78.593 62.588h-1.627l.81-2.048.817 2.048zm-4.255 2.611h1.612l.556-1.391h2.582l.574 1.391h1.65l-2.89-6.564h-1.21l-2.874 6.564z" mask="url(#b)"></path><path fill="#1A171B" d="M93.433 63.044h-1.41l.698-1.773.712 1.773zm-3.696 2.27h1.403l.483-1.208h2.24l.502 1.208h1.434l-2.514-5.701h-1.05l-2.498 5.701z" mask="url(#b)"></path></g></g></svg>
