<?xml version="1.0"?>
<svg xmlns="http://www.w3.org/2000/svg" height="512px" viewBox="-38 0 512 512.00052" width="512px"><path d="m219.796875 411.152344c-3.800781 0-7.597656-.867188-11.0625-2.597656-1.15625-.578126-2.304687-1.15625-3.4375-1.734376-14.183594-7.234374-27.59375-16.0625-39.859375-26.238281-15.097656-12.53125-28.4375-27.082031-39.648438-43.242187-1.832031-2.644532-2.296874-6.007813-1.242187-9.050782 2.777344-8.003906 7.515625-17.65625 12.367187-25.1875 10.925782-16.953124 29.484376-27.070312 49.652344-27.070312h31.007813c.171875 0 .34375.003906.515625.011719.425781.023437.855468.035156 1.289062.035156h2.972656c.429688 0 .859376-.011719 1.289063-.035156.167969-.007813.339844-.011719.511719-.011719h30.101562c20.167969 0 38.726563 10.117188 49.652344 27.070312 4.851562 7.527344 9.320312 17.734376 11.671875 24.183594 1.113281 3.0625.683594 6.476563-1.160156 9.164063-10.765625 15.6875-23.558594 29.898437-38.023438 42.242187-12.875 10.984375-27.042969 20.449219-42.101562 28.128906-1.132813.578126-2.28125 1.15625-3.4375 1.734376-3.460938 1.730468-7.261719 2.597656-11.058594 2.597656zm-74.359375-81c9.503906 12.941406 20.546875 24.667968 32.882812 34.90625 11.121094 9.230468 23.277344 17.234375 36.140626 23.792968 1.085937.554688 2.179687 1.109376 3.285156 1.660157 1.285156.640625 2.8125.640625 4.09375 0 1.105468-.550781 2.203125-1.105469 3.285156-1.65625 13.660156-6.964844 26.503906-15.546875 38.179688-25.507813 11.773437-10.046875 22.324218-21.457031 31.421874-33.980468-2.15625-5.160157-5.003906-11.035157-7.777343-15.335938-7.191407-11.164062-19.414063-17.828125-32.695313-17.828125h-29.859375c-.675781.03125-1.359375.046875-2.042969.046875h-2.972656c-.683594 0-1.367187-.015625-2.042968-.046875h-30.769532c-13.277344 0-25.5 6.664063-32.695312 17.828125-3.058594 4.746094-6.144532 10.679688-8.433594 16.121094zm0 0" fill="#297490"/><path d="m208.328125 104.878906c-.003906 0-.003906 0-.003906 0-11 8.5625-43.1875 28.625-104.339844 30-9.242187.207032-16.761719 7.90625-16.761719 17.164063v61.230469c0 40.066406 11.027344 79.300781 31.886719 113.460937 2.082031 3.414063 4.277344 6.738281 6.535156 10.019531.214844.359375.457031.707032.714844 1.039063 20.316406 29.128906 47.453125 52.851562 79.175781 69.03125 1.132813.578125 2.277344 1.15625 3.429688 1.730469 3.464844 1.730468 7.265625 2.597656 11.0625 2.597656 3.800781 0 7.601562-.867188 11.0625-2.597656 1.15625-.574219 2.300781-1.152344 3.4375-1.734376 32.019531-16.328124 59.367187-40.355468 79.75-69.867187.285156-.367187.550781-.746094.78125-1.144531 2.027344-2.976563 4.007812-5.988282 5.894531-9.074219 20.859375-34.164063 31.882813-73.394531 31.882813-113.460937v-61.230469c0-9.257813-7.519532-16.957031-16.757813-17.164063-61.15625-1.375-93.34375-21.4375-104.34375-30-6.890625-5.363281-16.515625-5.363281-23.40625 0zm17.035156 283.972656c-1.085937.554688-2.179687 1.105469-3.289062 1.660157-1.28125.640625-2.808594.640625-4.09375 0-1.105469-.554688-2.203125-1.109375-3.285157-1.660157-27.878906-14.214843-51.304687-34.378906-69.089843-58.527343 2.292969-5.488281 5.402343-11.492188 8.5-16.292969 7.191406-11.164062 19.414062-17.828125 32.695312-17.828125h25.464844v23.820313c0 5.570312 4.515625 10.085937 10.085937 10.085937 5.566407 0 10.082032-4.515625 10.082032-10.085937v-23.820313h22.054687c13.28125 0 25.503907 6.664063 32.699219 17.828125 2.800781 4.347656 5.675781 10.296875 7.839844 15.496094-17.851563 24.5-41.484375 44.953125-69.664063 59.324218zm-2.746093-193.105468c.601562 0 1.195312.03125 1.78125.074218.128906.007813.257812.015626.382812.027344.59375.054688 1.1875.125 1.769531.21875.042969.007813.082031.015625.121094.019532 9.070313 1.519531 16.554687 8 19.496094 16.542968-10.4375-.941406-20.328125 2.863282-30.734375 6.867188-1.914063.734375-3.875 1.488281-5.882813 2.230468-.761719.28125-4.574219 1.332032-14.855469-.753906v-.304687c0-13.742188 11.175782-24.921875 24.917969-24.921875h2.972657zm-17.367188 46.65625c4.367188 0 8.113281-.585938 11.277344-1.75 2.101562-.773438 4.148437-1.5625 6.148437-2.332032 9.390625-3.613281 17.5-6.730468 23.652344-5.28125.390625.089844.785156.160157 1.183594.21875v17.894532c0 13.253906-10.398438 24.121094-23.464844 24.878906h-5.894531c-13.066406-.757812-23.464844-11.625-23.464844-24.878906v-9.683594c3.863281.621094 7.378906.933594 10.5625.933594zm127.417969-29.128906c0 34.488281-8.808594 67.417968-24.820313 96.195312-1.1875-2.230469-2.433594-4.390625-3.703125-6.367188-9.921875-15.390624-26.136719-25.148437-44.132812-26.8125 4.84375-7.1875 7.671875-15.839843 7.671875-25.136718v-30.480469c0-.191406-.011719-.378906-.011719-.570313 0-.046874.003906-.09375.003906-.140624 0-.21875-.019531-.433594-.023437-.652344-.015625-.457032-.03125-.914063-.058594-1.371094-.015625-.28125-.042969-.5625-.0625-.84375-.039062-.492188-.082031-.984375-.136719-1.46875-.023437-.214844-.054687-.425781-.082031-.636719-.070312-.5625-.144531-1.121093-.238281-1.675781-.015625-.109375-.039063-.222656-.058594-.335938-3.535156-20.476562-20.914063-36.273437-42.125-37.34375-.757813-.039062-1.523437-.058593-2.289063-.058593h-2.984374c-24.867188 0-45.097657 20.230469-45.097657 45.097656v30.480469c0 9.269531 2.8125 17.894531 7.628907 25.066406-18.339844 1.429688-34.917969 11.246094-44.996094 26.882812-1.484375 2.304688-2.949219 4.820313-4.359375 7.410157-16.382813-29.023438-25.398438-62.332031-25.398438-97.238281v-58.3125c64.128907-2.0625 99.644531-23.722657 112.636719-33.636719 12.992188 9.914062 48.507812 31.574219 112.636719 33.636719zm0 0" fill="#297490"/><path d="m370.257812 381.492188c-2.101562-5.160157-7.984374-7.636719-13.144531-5.535157-5.160156 2.101563-7.636719 7.984375-5.539062 13.144531l.121093.296876c1.597657 3.914062 5.367188 6.285156 9.347657 6.285156 1.265625 0 2.554687-.242188 3.800781-.75 5.15625-2.101563 7.636719-7.984375 5.535156-13.144532zm0 0" fill="#297490"/><path d="m231.644531 355.582031c-2.089843-5.164062-7.964843-7.65625-13.132812-5.574219-5.164063 2.085938-7.660157 7.964844-5.574219 13.128907l.121094.300781c1.585937 3.925781 5.363281 6.308594 9.355468 6.308594 1.257813 0 2.535157-.238282 3.773438-.734375 5.164062-2.089844 7.660156-7.964844 5.574219-13.132813zm0 0" fill="#297490"/><path d="m414.695312 57.671875c-105.757812-2.375-161.832031-37.390625-181.03125-52.332031-9.148437-7.121094-21.921874-7.121094-31.070312 0-19.199219 14.941406-75.273438 49.953125-181.035156 52.332031-11.886719.265625-21.558594 10.175781-21.558594 22.089844v103.796875c0 66.628906 18.335938 131.875 53.027344 188.6875 34.738281 56.894531 84.433594 102.945312 143.714844 133.175781 1.902343.972656 3.828124 1.945313 5.769531 2.914063 4.890625 2.441406 10.253906 3.664062 15.617187 3.664062 5.363282 0 10.726563-1.222656 15.617188-3.664062 1.941406-.96875 3.863281-1.941407 5.773437-2.914063 39.8125-20.304687 75.085938-47.492187 104.84375-80.8125 3.710938-4.15625 3.351563-10.53125-.804687-14.242187-4.152344-3.710938-10.53125-3.351563-14.238282.804687-28.089843 31.449219-61.386718 57.113281-98.960937 76.277344-1.859375.949219-3.734375 1.894531-5.628906 2.84375-4.132813 2.0625-9.070313 2.066406-13.207031-.003907-1.894532-.945312-3.769532-1.890624-5.621094-2.835937-114.5625-58.425781-185.730469-174.871094-185.730469-303.894531v-103.796875c0-1.039063.824219-1.902344 1.839844-1.925781 111.78125-2.511719 172.1875-40.402344 192.972656-56.578126 1.851563-1.441406 4.4375-1.441406 6.289063 0 20.78125 16.175782 81.1875 54.066407 192.96875 56.578126 1.015624.023437 1.84375.886718 1.84375 1.925781v103.796875c0 56.863281-14.332032 113.296875-41.445313 163.207031-2.660156 4.894531-.847656 11.019531 4.046875 13.679687 4.898438 2.65625 11.019531.84375 13.679688-4.050781 28.710937-52.855469 43.890624-112.621093 43.890624-172.835937v-103.796875c0-11.914063-9.671874-21.824219-21.5625-22.089844zm0 0" fill="#297490"/></svg>
