<?xml version="1.0" encoding="utf-8"?>
<!-- Generator: Adobe Illustrator 20.1.0, SVG Export Plug-In . SVG Version: 6.00 Build 0)  -->
<svg version="1.1" xmlns="http://www.w3.org/2000/svg" xmlns:xlink="http://www.w3.org/1999/xlink" x="0px" y="0px"
	 viewBox="0 0 480 141.8" style="enable-background:new 0 0 480 141.8;" xml:space="preserve">
<style type="text/css">
	.st0{display:none;}
	.st1{display:inline;fill:#297490;}
	.st2{fill:#297490;}
	.st3{display:inline;fill:#575757;}
	.st4{fill:#575757;}
	.st5{display:none;fill:#297490;}
</style>
<g id="Layer_3">
	<g>
		<path class="st2" d="M156.4,97h-24V37.7h1.7v57.4h22.3l0.3,0.4L156.4,97z"/>
		<path class="st2" d="M201.7,97h-24V37.7h1.7v57.4h22.3l0.3,0.4L201.7,97z"/>
		<path class="st2" d="M252.1,42.8l-0.6,1.6h-0.6c-3.8-3.3-8.7-5.2-13.9-5.2c-13.6,0-21,10.1-21,28.4c0,18,7.1,28,19.9,28
			c5.5,0,11.1-2.2,15.7-6.2l0.6,0.2l-0.2,1.7c-4.8,4-10.6,6.2-16,6.2c-14,0-21.7-10.7-21.7-29.9c0-19.3,8-30.1,22.7-30.1
			C242.4,37.4,247.9,39.3,252.1,42.8z"/>
		<path class="st2" d="M306.1,96.5v0.4c-0.3,0.4-0.6,0.6-1,0.7l-0.5-0.2c-5.7-8.2-11-16.5-15.7-24.9h-11.5V97h-1.7V37.7l12.1-0.2
			c9.9,0,15.5,5.8,15.5,16.3c0,9.1-4.4,15.6-12.6,18.3C295.3,80.5,300.4,88.5,306.1,96.5z M289.5,70.7c7.7-2.1,12-8.2,12-16.8
			c0-8.9-4.7-14-13.2-14.4l-11,0.1v31.2H289.5z"/>
		<path class="st2" d="M364.8,97l-1.1-4l-5.4-15.8h-25.8L326.6,93l-1.2,4h-2.1l21.7-59.2h1.7L366.7,97H364.8z M346,40.9h-0.3
			l-12.6,34.4h24.6L346,40.9z"/>
		<path class="st2" d="M391.5,66.3h19.4l0.3,0.4l-0.3,1.5h-19.3V97h-1.7V37.7h25.4l0.3,0.4l-0.3,1.5h-23.6V66.3z"/>
		<path class="st2" d="M466.3,39.6h-16.7V97h-1.7V39.6h-16.9l-0.3-0.4l0.3-1.5h35.2l0.3,0.4L466.3,39.6z"/>
	</g>
	<g>
		<path class="st2" d="M59.3,95.6L46.3,54.9h-0.3L31.7,95.6H30L10.9,36.4h1.9l1.1,4l16.9,52.1h0.3l14.1-40.6l-5-15.4h1.8l1.1,4
			l16.9,52.1h0.3l18.3-52.1l1.2-4h1.9L61,95.6H59.3z"/>
	</g>
	<path class="st2" d="M96.2,63.8c0-8.2,0-16.5,0-24.7c0-2,0-2,2.1-2c3.7,0,7.4,0,11,0c1.6,0,1.7,0.1,1.7,1.8c0,8.5,0,17,0,25.4
		c0,8.2,0,16.3,0,24.5c0,1-0.3,1.7-1,2.3c-1.6,1.4-3.2,2.9-4.8,4.3c-1.2,1-2,1-3.2,0c-1.7-1.5-3.4-3-5-4.6c-0.4-0.4-0.8-1.2-0.8-1.9
		C96.2,80.6,96.3,72.2,96.2,63.8C96.3,63.8,96.3,63.8,96.2,63.8z M98.1,47.2c0,0.6,0,1.1,0,1.5c0,12.4,0.1,24.8-0.1,37.2
		c0,2.6,0.4,3.9,2.4,5.7c0.5,0.5,1,0.9,1.6,1.4c1.2,1.1,2.2,1.2,3.4,0.1c1.1-1,2.1-2,3.1-3c0.7-0.6,0.9-1.2,0.9-2.1
		c0-13.2,0-26.3,0-39.5c0-0.4,0-0.8,0-1.3C105.6,47.2,101.9,47.2,98.1,47.2z M109.4,45.4c0-2,0-3.8,0-5.7c0-0.3-0.6-0.9-0.9-0.9
		c-3.1,0-6.1,0-9.2,0c-0.3,0-1,0.4-1,0.8c-0.1,1.9,0,3.9,0,5.9C101.9,45.4,105.5,45.4,109.4,45.4z"/>
</g>
</svg>
